<svg xmlns="http://www.w3.org/2000/svg" xmlns:xlink="http://www.w3.org/1999/xlink" width="465.902" height="452.951" viewBox="0 0 465.902 452.951">
  <defs>
    <clipPath id="clip-path">
      <rect id="Rectangle_1002" data-name="Rectangle 1002" width="80.234" height="100.202" fill="#a7d099"/>
    </clipPath>
    <clipPath id="clip-path-2">
      <rect id="Rectangle_1000" data-name="Rectangle 1000" width="310.861" height="349.316" fill="none"/>
    </clipPath>
  </defs>
  <g id="Component_115_1" data-name="Component 115 – 1" transform="translate(71.09 91.951)">
    <rect id="Rectangle_1003" data-name="Rectangle 1003" width="282" height="223" rx="11" transform="translate(20.861)" fill="#cfffbf" opacity="0.996"/>
    <g id="Group_743" data-name="Group 743" transform="translate(-69.139 -209.455)" style="mix-blend-mode: normal;isolation: isolate">
      <g id="Group_742" data-name="Group 742" transform="translate(280.142 221.139)">
        <g id="Group_741" data-name="Group 741" transform="translate(0 0)" clip-path="url(#clip-path)">
          <path id="Path_776" data-name="Path 776" d="M0,.01V100.2L74.309,22.436S55.288-.615,0,.01" transform="translate(0 0)" fill="#a7d099"/>
        </g>
      </g>
      <path id="Path_779" data-name="Path 779" d="M0,1.019V66.887H45.394V0H0Z" transform="translate(174.806 267.768) rotate(-90)" fill="#a7d099"/>
      <g id="Group_740" data-name="Group 740" transform="translate(69.139 221.139)">
        <path id="Path_715" data-name="Path 715" d="M136.485,78.686v77.919H69.079V78.712Z" transform="translate(-2.437 -2.776)" fill="#347f41"/>
        <g id="Group_737" data-name="Group 737">
          <g id="Group_736" data-name="Group 736" clip-path="url(#clip-path-2)">
            <path id="Path_718" data-name="Path 718" d="M317.853,195.939q-32.27.075-64.54.148-11.147.025-22.295.023c-.748-.779-1.259-1.552.064-2.274,26.576.062,53.153.159,79.73.13" transform="translate(-8.124 -6.839)" fill="#ffeb90"/>
            <path id="Path_725" data-name="Path 725" d="M19.559,159.283l10.872-.361c1.462-.866,2.862-.143,4.279.165,3.687.107,7.405.866,11.024-.516,1.619-.577,3.127.2,4.683.387,2.956.133,5.911.3,8.869.388,2.328.069,3.768.676,2.373,3.342-8.158,2.172-16.466.762-24.682.769-5.972,0-12.092,1.392-17.985-.815-.823-1.29-.086-2.317.567-3.358" transform="translate(-0.657 -5.587)" fill="#348a73"/>
            <path id="Path_726" data-name="Path 726" d="M18.985,162.8l42.668.046c.749.646.446,1.268-.045,1.884l-42.857.057a1.416,1.416,0,0,1,.234-1.987" transform="translate(-0.651 -5.743)" fill="#addddf"/>
            <path id="Path_727" data-name="Path 727" d="M61.547,197.406l-42.638.169c-.834-.746-.429-1.395.155-2.03q21.229.2,42.463.389a.963.963,0,0,1,.019,1.472" transform="translate(-0.65 -6.899)" fill="#addde0"/>
            <path id="Path_728" data-name="Path 728" d="M18.744,206.848l42.789.1c.316.423.662.844.057,1.305l-42.419.251c-.482-.463-.808-.967-.427-1.652" transform="translate(-0.655 -7.298)" fill="#addde1"/>
            <path id="Path_729" data-name="Path 729" d="M61.607,186.5l-42.818.073a1.311,1.311,0,0,1,.041-2l42.42.395q.179.767.357,1.535" transform="translate(-0.647 -6.512)" fill="#aedde0"/>
            <path id="Path_730" data-name="Path 730" d="M19.007,173.688l42.6.185q-.109.812-.214,1.622l-42.377.269a1.548,1.548,0,0,1-.012-2.076" transform="translate(-0.657 -6.128)" fill="#aedde0"/>
            <path id="Path_731" data-name="Path 731" d="M120.555,155.352c-11.2.2-40.468.181-51.67.376-3.756.065-5.308-.87-5.28-4.994.167-24.264-.261-48.535.174-72.791.369-20.591,17.332-35.973,37.858-35.348,2.013.062,4.107.606,6.072-.39a2.664,2.664,0,0,1,.92.145c12.019,2.744,20.595,9.942,25.862,20.856,2.092,4.333,4.908,9.009,1.8,14.193-1.835,2.732-4.756,1.817-7.21,1.9-6.133.2-12.289.227-18.414-.09-2.585-.133-3.268.484-3.257,2.968.095,20.218.387,40.441-.024,60.65" transform="translate(-2.243 -1.489)" fill="#347f41"/>
            <path id="Path_734" data-name="Path 734" d="M137.938,77.4c-.988-15.945-9.568-26.327-23.852-32.548-1.4-.612-3.559-.128-3.811-2.5q28.836.178,57.67.351c.115,9.065.124,18.137.405,27.2.1,3.076-.728,6.334,1.123,9.221-.507,11.634.791,23.315-.925,34.925-3.908,4.936-9.1,8.71-11.975,14.645-2.067,4.265-1.937,9.178-4.608,13.141-4.84,2.151-9.934.942-14.9.937-5.424-.006-10.815-.161-16.1,1.307-1.343-17.01,3.814-31.883,14.85-44.777A62.211,62.211,0,0,1,159.39,81.856c.773-.32,1.869-.445,1.884-2.259-6.238-.088-12.478-.229-18.718-.231-1.9,0-3.788.378-4.618-1.962" transform="translate(-3.891 -1.494)" fill="#36ac60"/>
            <path id="Path_735" data-name="Path 735" d="M183.508,208.5c2.857-4.061,1.536-8.7,1.465-13.027-.1-6.237,1.593-12.647-1.221-18.71-1.361-1.1-3.056-1.234-4.659-1.682-12.77-3.573-22.629-10.164-25.078-24.366a8.324,8.324,0,0,0-1.29-3.635,2.958,2.958,0,0,0-1.476-.9c-9.179-2.031-18.454-1.251-27.7-.794-.768.038-1.465,1.507-2.2,2.311,1.648,23.811,12.54,41.715,33.533,53.559" transform="translate(-4.281 -5.11)" fill="#255b28"/>
            <path id="Path_736" data-name="Path 736" d="M229.444,209.966a8.036,8.036,0,0,1,.777.761q-.352.407-.682.831c-2.177-.734-4.989,1.322-6.686-1.518-1.567-2.975-2.2-5.885.6-8.554,4.19,1.278,4.8,5.088,5.992,8.481" transform="translate(-7.815 -7.108)" fill="#edeaf0"/>
            <path id="Path_737" data-name="Path 737" d="M185.729,208.54q.023-15.649.047-31.3c-2.462-4.358-.981-9.08-1.1-13.615-.157-5.838-1.116-11.772.893-17.519a2.709,2.709,0,0,1,1.629.064c3.659,3.143,5.824,7.329,8.029,11.491.224,15.015.165,30.034.125,45.053-.006,2.2.058,4.5-1.712,6.26" transform="translate(-6.502 -5.151)" fill="#f7f9fb"/>
            <path id="Path_738" data-name="Path 738" d="M200.7,209.441a4.231,4.231,0,0,1-4.794-.437c-1.47-3.952-.565-8.046-.629-12.066-.163-10.192-.108-20.387-.031-30.581.014-1.725-.941-3.69.763-5.2,3.869.972,4.861,4.426,6.415,7.4-.282,10.578-.308,21.161-.159,31.746.044,3.12.525,6.365-1.566,9.142" transform="translate(-6.879 -5.685)" fill="#eef8f9"/>
            <path id="Path_739" data-name="Path 739" d="M207.351,209.642c-1.657,1.009-3.228,1.1-4.649-.432-1.478-8.953-.615-17.976-.673-26.962-.026-3.94-.983-8,.7-11.864,4,1.42,5.1,4.951,6.2,8.49.127,8.369-.083,16.74,0,25.112.018,1.988.349,4.163-1.572,5.657" transform="translate(-7.117 -6.011)" fill="#edf6f9"/>
            <path id="Path_740" data-name="Path 740" d="M214.215,209.938a4.282,4.282,0,0,1-4.436.36c-2.614-5.994-.719-12.267-.957-18.394-.135-3.477-1.457-7.318,1.041-10.632,3.716.778,4.6,3.9,5.712,6.849.325,5.537-.058,11.084.14,16.629a6.835,6.835,0,0,1-1.5,5.189" transform="translate(-7.351 -6.395)" fill="#ecf5f7"/>
            <path id="Path_741" data-name="Path 741" d="M196.251,161.43q-.19,23.742-.377,47.485l-1.895.506c.08-14.511.142-29.023.259-43.533.019-2.408.281-4.814.431-7.22,2.764-.36,1.772,1.431,1.582,2.761" transform="translate(-6.844 -5.596)" fill="#52918d"/>
            <path id="Path_742" data-name="Path 742" d="M220.958,210.193c-1.708,1.235-3.315,1.291-4.771-.408-.81-5.945-2.031-11.908.765-17.7,3.718.807,4.716,3.848,5.692,6.91-1.492,3.588.291,7.676-1.686,11.2" transform="translate(-7.593 -6.777)" fill="#ebf1f4"/>
            <path id="Path_743" data-name="Path 743" d="M202.485,171.215q.093,18.977.187,37.953l-1.759.556q.038-17.012.088-34.023c.01-2.205-.394-4.484.863-6.532,1.567.27,1.63,1,.62,2.046" transform="translate(-7.088 -5.968)" fill="#53918f"/>
            <path id="Path_744" data-name="Path 744" d="M209.944,181.523c-.721,9.564-.389,19.135-.193,28.705a2,2,0,0,1-2.2-.27l.535-30.63c1.605-.1,2.433.453,1.853,2.195" transform="translate(-7.322 -6.326)" fill="#568f8e"/>
            <path id="Path_745" data-name="Path 745" d="M216.7,192.226l-.544,17.448-1.731.534q.172-10.626.344-21.251c2.541-.029,2.374,1.539,1.93,3.268" transform="translate(-7.565 -6.666)" fill="#568f8c"/>
            <path id="Path_746" data-name="Path 746" d="M221.167,210.458c.42-3.608-.768-7.348.888-10.856,1.558,0,1.625.876,1.2,2.04q-.207,4.165-.412,8.329l-1.672.486" transform="translate(-7.802 -7.042)" fill="#559090"/>
            <path id="Path_747" data-name="Path 747" d="M222.054,199.674l-1.2-2.039c-1.629-2.389-2.609-5.251-5.115-7-.711-1.051-.363-2.723-1.929-3.269a25.684,25.684,0,0,0-4.588-7.095,2.483,2.483,0,0,0-1.852-2.195c-1.127-3.046-2.641-5.823-5.373-7.756.114-.778.3-1.578-.62-2.045l-5.369-7.366q-.79-1.382-1.582-2.762l-7.209-11.315c.269-2.888,2.716-2.737,4.5-2.791,11.187-.338,22.381-.219,33.572-.176,2.693.011,4.826,1.359,4.968,4.286.224,4.609,1.2,9.286-.618,13.816-1.449,3.475-1.1,6.98-.167,10.492-.032,1.158,1.119,1.939,1,3.125-.03,1.1-.313,2.176-.3,3.281.034.883.069,1.764.045,2.646a27.791,27.791,0,0,0,.019,4.018,4.065,4.065,0,0,1-.6,2.639,3.294,3.294,0,0,0-.082,3.9q-.032,1.139-.064,2.276a3.286,3.286,0,0,0,.073,4.193c-.792,1.115-.5,2.3-.229,3.486q-.556,2.951-1.11,5.906l-6.18-8.257" transform="translate(-6.605 -5.074)" fill="#255b28"/>
            <path id="Path_748" data-name="Path 748" d="M230.035,159.737v47.149h88.941l-.3-126.3Z" transform="translate(-8.116 -2.843)" fill="#36ac60"/>
            <rect id="Rectangle_995" data-name="Rectangle 995" width="88.438" height="2.239" transform="translate(222.423 167.297)" fill="#fff"/>
            <rect id="Rectangle_996" data-name="Rectangle 996" width="88.438" height="2.239" transform="translate(222.423 175.133)" fill="#fff"/>
            <rect id="Rectangle_997" data-name="Rectangle 997" width="88.438" height="2.239" transform="translate(222.423 181.851)" fill="#fff"/>
            <rect id="Rectangle_998" data-name="Rectangle 998" width="88.438" height="2.239" transform="translate(222.423 188.567)" fill="#fff"/>
            <path id="Path_750" data-name="Path 750" d="M170.414,114.516c-.134-10.379-.333-20.76-.333-31.139,0-.558.129-1.678.129-2.8,9.186.013,19.745-.083,28.931-.07a1.56,1.56,0,0,1,1.048,1.1c.092,9.736,1.108,19.486-.342,29.211a4.3,4.3,0,0,1-3.857,1.747c-7.75.009-15.459.293-22.968,2.519a2.9,2.9,0,0,1-2.608-.567" transform="translate(-6 -2.84)" fill="#255b28"/>
            <rect id="Rectangle_999" data-name="Rectangle 999" width="88.438" height="2.239" transform="translate(222.423 195.283)" fill="#fff"/>
            <path id="Path_751" data-name="Path 751" d="M169.788,114.453c9.313-3.834,19.208-2.917,28.915-3.534,6.014-2.556,12.288-.8,18.43-1,4.542-.147,8.85-.166,11.414-4.762,4.874-1.632,10.231-.709,14.986-3.476,8.221-4.783,12.045-12.083,13.457-21.065,6.764-2.268,13.533-2.777,20.306-.026-1.5,4.8-1.458,9.936-3.551,14.636-7.555,16.957-21.9,25.8-40.542,24.791-.747-.064.114-.761-.127-.053-.031.091.132.148.488.169,21.928,1.325,39.562-13.076,42.752-34.94a10.455,10.455,0,0,1,1.174-4.28c6.394-2.767,12.892-2.634,19.456-.7.889,28.551-24.484,60.049-63.9,56.325,37.736,3.654,63.832-25.262,64.137-55.662,5.915-3.467,12.336-1.072,18.506-1.6.551,5.718-1.14,11.388-1.488,17.1-3.677,12.69-9.37,24.16-18.54,33.992-17.359,18.612-38.942,27.413-63.948,28.89-1.1.066-2.2.277-3.3.418-.2-4.248-.5-8.492-.568-12.741-.04-2.4-.708-4.063-3.381-4.052q-17.79.074-35.58.242a3.386,3.386,0,0,0-2.9,1.412l-1.254-.329c-10.637.588-21.281.413-31.925.289a.582.582,0,0,1-.467-.65c1.7-4.467,1.524-9.369,3.688-13.81,3.185-6.538,8.1-11.335,13.757-15.58" transform="translate(-5.375 -2.777)" fill="#a7d099"/>
            <path id="Path_753" data-name="Path 753" d="M152.827,146.832c2.168-2.01,23.831-2.723,31.926-.293q-.045,15.338-.088,30.668c-18.761-1.843-28.968-11.58-31.839-30.375" transform="translate(-5.392 -5.116)" fill="#a7d099"/>
            <path id="Path_754" data-name="Path 754" d="M230.052,105.8c-.162,4.541-2.964,5.664-6.941,5.543-7.573-.23-15.149-.33-22.723-.481-.382-10.092-.392-20.8.229-30.9,9.917,0,16.279-3.756,25.818-2.46,2.177,1.02,4.307,6.507,4.366,8.308.195,5.918.087,11.838.146,17.76a3.8,3.8,0,0,1-.894,2.227" transform="translate(-7.06 -2.725)" fill="#36ac60"/>
            <path id="Path_755" data-name="Path 755" d="M230.891,104.122q-.41-11.507-.82-23.015c.3-.476,2.672-.445,2.975-.919,7.261,1.895,12.6-.09,19.922.43,1.821.129,3.64.292,5.46.441,2.347.608,1.1,2.34.946,3.515-1.729,12.943-15.567,22.76-28.483,19.548" transform="translate(-8.117 -2.829)" fill="#a7d099"/>
            <path id="Path_756" data-name="Path 756" d="M299.45,80.49a1.215,1.215,0,0,1,.952.307c.413,14.487-4.509,27.091-14.153,37.693-14.88,16.356-33.868,20.976-56.318,18.5,3.818-2.236,7.065-1.526,9.9-1.363A55.532,55.532,0,0,0,298.81,82.6a8.833,8.833,0,0,1,.64-2.106" transform="translate(-8.112 -2.839)" fill="#ebdded"/>
            <path id="Path_757" data-name="Path 757" d="M279.835,80.629a2.961,2.961,0,0,1,1,.391c-1.333,10.8-4.7,20.72-12.668,28.545-10.288,10.1-22.745,13.076-37.868,11.17,3.029-1.68,5.2-1.465,7.345-1.453,21.465.135,37.137-13.04,40.4-34.039a8.98,8.98,0,0,1,1.791-4.613" transform="translate(-8.125 -2.845)" fill="#e9dbec"/>
            <path id="Path_758" data-name="Path 758" d="M230.921,104.142c8.807-.418,17.233-1.461,23.117-9.411,3.091-4.176,4.88-8.474,4.42-13.653l1.715-.317c2.542,9.324-9.049,23.913-21.243,24.9-2.587.208-5.193.183-7.791.268q-.109-.891-.218-1.785" transform="translate(-8.147 -2.849)" fill="#e9dbe9"/>
          </g>
        </g>
        <text id="_" data-name="?" transform="translate(75.248 133.393)" fill="#fff" font-size="83" font-family="Poppins-Regular, Poppins"><tspan x="0" y="0">?</tspan></text>
        <g id="Group_739" data-name="Group 739">
          <g id="Group_738" data-name="Group 738" clip-path="url(#clip-path-2)">
            <path id="Path_780" data-name="Path 780" d="M16.747,160.818V187.4H135.811V160.406H16.747Z" transform="translate(43.568 19.584)" fill="#255b28"/>
            <path id="Path_759" data-name="Path 759" d="M62.044,156.7h-45.3V72.125s1.06-70.956,89.67-70.956V42.02a50.811,50.811,0,0,0-12.073.55A36.309,36.309,0,0,0,64.027,77.626Z" transform="translate(-0.591 -0.041)" fill="#a7d099"/>
            <path id="Path_760" data-name="Path 760" d="M16.747,161.2V212.64H62.141V160.406H16.747Z" transform="translate(-0.591 -5.659)" fill="#a7d099"/>
            <path id="Path_762" data-name="Path 762" d="M170.21,77.74h57.744V.008h-57.9Z" transform="translate(-5.999 0)" fill="#2a8e53"/>
            <path id="Path_763" data-name="Path 763" d="M229.06,63.363c1.058,2.27.576,4.576.155,6.878-8.2-.017-16.4-.007-24.605-.068-2.149-.016-4.364.457-4.35-3.262.014-3.592,1.949-3.222,4.224-3.241,8.192-.068,16.385-.2,24.576-.307" transform="translate(-7.763 -2.235)" fill="#f0f8f9"/>
            <path id="Path_764" data-name="Path 764" d="M229.053,53.288c1.085,2.121.619,4.28.155,6.44-8.388-.04-16.776-.15-25.163-.073-2.439.022-3.733-.33-3.775-3.257-.042-2.9,1.095-3.352,3.633-3.3,8.381.182,16.766.142,25.149.187" transform="translate(-7.764 -1.873)" fill="#f1f8f9"/>
            <path id="Path_765" data-name="Path 765" d="M229.285,42.645c.261,2.15.745,4.312-.312,6.4-8,.016-16,.055-24,.036-2.263-.006-4.895.826-4.76-3.283s2.874-3.145,5.079-3.162c8-.065,16,0,23.992.011" transform="translate(-7.761 -1.501)" fill="#f1f9fa"/>
            <path id="Path_767" data-name="Path 767" d="M230.071,79.07h88.482s-8.531-44.2-25.8-56.59Z" transform="translate(-8.117 -0.793)" fill="#a7d099"/>
            <path id="Path_768" data-name="Path 768" d="M231.1,161.64v48.106h-1.073l-.29-1.187V161.64Z" transform="translate(-8.105 -5.703)" fill="#255b28"/>
            <path id="Path_771" data-name="Path 771" d="M187.219,146.939l39.706,61.1,1.6,1.187.34-2.24-11.7-25.551-19.9-26.653Z" transform="translate(-6.605 -5.184)" fill="#255b28"/>
            <path id="Path_775" data-name="Path 775" d="M109.694,43.468a18.075,18.075,0,0,0,5.074,1.7c3.549.769,0-2.788,0-2.788l-5.133-.172Z" transform="translate(-3.868 -1.489)" fill="#36ac60"/>
          </g>
        </g>
      </g>
      <path id="Path_777" data-name="Path 777" d="M69.519.007a1.215,1.215,0,0,1,.952.307C70.884,14.8,65.962,27.4,56.318,38.006,41.438,54.362,22.449,58.982,0,56.5c3.818-2.236,7.065-1.526,9.9-1.363A55.532,55.532,0,0,0,68.879,2.113a8.833,8.833,0,0,1,.64-2.106" transform="matrix(-0.966, 0.259, -0.259, -0.966, 161.411, 292.882)" fill="#ebdded"/>
      <path id="Path_778" data-name="Path 778" d="M49.539,0a2.961,2.961,0,0,1,1,.391c-1.333,10.8-4.7,20.72-12.668,28.545C27.58,39.036,15.123,42.012,0,40.105c3.029-1.68,5.2-1.465,7.345-1.453,21.465.135,37.137-13.04,40.4-34.039A8.98,8.98,0,0,1,49.539,0" transform="matrix(-0.966, 0.259, -0.259, -0.966, 161.034, 292.836)" fill="#e9dbec"/>
    </g>
    <g id="Group_744" data-name="Group 744" transform="translate(40.861 -58)">
      <path id="Icon_material-transform" data-name="Icon material-transform" d="M24.727,19.968V17.8H9.518V4.759h2.173L8.432,1.5,5.173,4.759H7.345V6.932H3V9.1H7.345V17.8a2.179,2.179,0,0,0,2.173,2.173h8.691v2.173H16.036L19.3,25.4l3.259-3.259H20.382V19.968ZM11.691,9.1h6.518v6.518h2.173V9.1a2.179,2.179,0,0,0-2.173-2.173H11.691Z" transform="translate(124.053 148.585)" fill="#fff"/>
      <path id="Icon_awesome-file-alt" data-name="Icon awesome-file-alt" d="M2.28,1.384V0H.244A.244.244,0,0,0,0,.244V4.966a.244.244,0,0,0,.244.244H3.664a.244.244,0,0,0,.244-.244V1.628H2.524A.245.245,0,0,1,2.28,1.384Zm.651,2.4a.122.122,0,0,1-.122.122H1.1a.122.122,0,0,1-.122-.122V3.7A.122.122,0,0,1,1.1,3.582h1.71a.122.122,0,0,1,.122.122Zm0-.651a.122.122,0,0,1-.122.122H1.1a.122.122,0,0,1-.122-.122V3.053A.122.122,0,0,1,1.1,2.931h1.71a.122.122,0,0,1,.122.122Zm0-.733v.081a.122.122,0,0,1-.122.122H1.1a.122.122,0,0,1-.122-.122V2.4A.122.122,0,0,1,1.1,2.28h1.71A.122.122,0,0,1,2.931,2.4Zm.977-1.161V1.3h-1.3V0h.062A.244.244,0,0,1,2.84.071l1,1A.243.243,0,0,1,3.908,1.241Z" transform="translate(135.964 159.43)" fill="#fff"/>
    </g>
  </g>
</svg>
