<svg xmlns="http://www.w3.org/2000/svg" xmlns:xlink="http://www.w3.org/1999/xlink" width="251.722" height="282.861" viewBox="0 0 251.722 282.861">
  <defs>
    <clipPath id="clip-path">
      <rect id="Rectangle_1002" data-name="Rectangle 1002" width="64.97" height="81.139" transform="translate(0 0)" fill="#a7d099"/>
    </clipPath>
    <clipPath id="clip-path-2">
      <rect id="Rectangle_1000" data-name="Rectangle 1000" width="251.722" height="282.861" fill="none"/>
    </clipPath>
  </defs>
  <g id="Group_743" data-name="Group 743" transform="translate(-69.139 -221.139)">
    <g id="Group_742" data-name="Group 742" transform="translate(240 221.139)">
      <g id="Group_741" data-name="Group 741" clip-path="url(#clip-path)">
        <path id="Path_776" data-name="Path 776" d="M0,.008V81.139L60.172,18.167S44.77-.5,0,.008" fill="#a7d099"/>
      </g>
    </g>
    <path id="Path_779" data-name="Path 779" d="M16.747,161.232v53.337H53.505V160.406H16.747Z" transform="translate(-5.703 275.645) rotate(-90)" fill="#a7d099"/>
    <g id="Group_740" data-name="Group 740" transform="translate(69.139 221.139)">
      <path id="Path_715" data-name="Path 715" d="M123.661,78.686v63.1H69.079V78.708Z" transform="translate(-15.115 -17.217)" fill="#347f41"/>
      <g id="Group_737" data-name="Group 737">
        <g id="Group_736" data-name="Group 736" clip-path="url(#clip-path-2)">
          <path id="Path_718" data-name="Path 718" d="M301.19,195.539q-26.131.061-52.262.12-9.026.02-18.053.019c-.605-.631-1.019-1.257.052-1.841,21.52.05,43.041.129,64.562.105" transform="translate(-50.385 -42.414)" fill="#ffeb90"/>
          <path id="Path_725" data-name="Path 725" d="M19.382,159.108l8.8-.292c1.183-.7,2.318-.116,3.465.134,2.986.087,6,.7,8.927-.418,1.311-.467,2.532.159,3.792.313,2.394.108,4.786.243,7.181.314,1.885.056,3.051.548,1.922,2.706-6.606,1.758-13.333.617-19.987.623-4.836,0-9.791,1.127-14.564-.66-.666-1.044-.07-1.876.459-2.719" transform="translate(-4.076 -34.651)" fill="#348a73"/>
          <path id="Path_726" data-name="Path 726" d="M18.881,162.8l34.55.037c.606.523.361,1.027-.037,1.526l-34.7.046a1.146,1.146,0,0,1,.19-1.609" transform="translate(-4.035 -35.622)" fill="#addddf"/>
          <path id="Path_727" data-name="Path 727" d="M53.346,197.052l-34.526.137c-.676-.6-.348-1.13.126-1.644q17.19.159,34.385.315a.78.78,0,0,1,.016,1.192" transform="translate(-4.034 -42.787)" fill="#addde0"/>
          <path id="Path_728" data-name="Path 728" d="M18.712,206.848l34.649.077c.256.342.536.684.046,1.057l-34.349.2c-.391-.375-.655-.783-.346-1.337" transform="translate(-4.065 -45.261)" fill="#addde1"/>
          <path id="Path_729" data-name="Path 729" d="M53.376,186.13,18.7,186.19a1.062,1.062,0,0,1,.034-1.622l34.35.32q.145.621.289,1.243" transform="translate(-4.013 -40.386)" fill="#aedde0"/>
          <path id="Path_730" data-name="Path 730" d="M18.932,173.688l34.5.15q-.088.657-.173,1.313l-34.315.218a1.253,1.253,0,0,1-.009-1.681" transform="translate(-4.073 -38.005)" fill="#aedde0"/>
          <path id="Path_731" data-name="Path 731" d="M109.715,133.827c-9.071.166-32.769.147-41.84.3-3.041.052-4.3-.7-4.275-4.044.135-19.648-.212-39.3.141-58.943.3-16.674,14.035-29.13,30.655-28.624,1.63.05,3.326.491,4.917-.316a2.157,2.157,0,0,1,.745.117c9.733,2.222,16.677,8.051,20.942,16.889,1.694,3.508,3.974,7.295,1.458,11.493-1.486,2.212-3.851,1.471-5.839,1.535-4.966.159-9.951.184-14.911-.073-2.094-.108-2.647.392-2.637,2.4.077,16.371.313,32.747-.02,49.112" transform="translate(-13.911 -9.235)" fill="#347f41"/>
          <path id="Path_734" data-name="Path 734" d="M132.676,70.736c-.8-12.911-7.748-21.319-19.314-26.356-1.137-.5-2.882-.1-3.086-2.027q23.35.144,46.7.284c.093,7.341.1,14.686.328,22.026.077,2.49-.59,5.129.909,7.467-.411,9.42.641,18.88-.749,28.281-3.165,4-7.368,7.053-9.7,11.859-1.674,3.454-1.569,7.432-3.731,10.641-3.919,1.742-8.044.762-12.069.759-4.392,0-8.757-.13-13.037,1.059-1.087-13.774,3.089-25.818,12.025-36.259a50.376,50.376,0,0,1,19.093-14.128c.626-.259,1.513-.36,1.526-1.83-5.051-.071-10.1-.185-15.157-.187-1.535,0-3.068.306-3.74-1.589" transform="translate(-24.13 -9.267)" fill="#36ac60"/>
          <path id="Path_735" data-name="Path 735" d="M171.683,196.391c2.313-3.288,1.244-7.043,1.187-10.548-.082-5.05,1.29-10.241-.989-15.15-1.1-.89-2.475-1-3.772-1.362-10.341-2.894-18.324-8.231-20.307-19.73a6.741,6.741,0,0,0-1.044-2.944,2.4,2.4,0,0,0-1.2-.729c-7.433-1.644-14.943-1.013-22.432-.643-.622.03-1.187,1.22-1.778,1.871,1.334,19.281,10.155,33.779,27.153,43.37" transform="translate(-26.553 -31.695)" fill="#255b28"/>
          <path id="Path_736" data-name="Path 736" d="M227.935,208.352a6.506,6.506,0,0,1,.629.616q-.285.329-.552.673c-1.763-.594-4.04,1.07-5.414-1.23-1.269-2.409-1.784-4.765.486-6.927,3.393,1.035,3.883,4.12,4.852,6.867" transform="translate(-48.47 -44.087)" fill="#edeaf0"/>
          <path id="Path_737" data-name="Path 737" d="M185.459,196.645q.019-12.672.038-25.343c-1.994-3.529-.794-7.353-.893-11.025-.127-4.727-.9-9.532.723-14.186a2.193,2.193,0,0,1,1.319.052c2.963,2.545,4.716,5.935,6.5,9.3.181,12.158.134,24.32.1,36.482,0,1.783.047,3.647-1.387,5.069" transform="translate(-40.329 -31.949)" fill="#f7f9fb"/>
          <path id="Path_738" data-name="Path 738" d="M199.618,200.255a3.426,3.426,0,0,1-3.882-.354c-1.191-3.2-.458-6.515-.509-9.77-.132-8.253-.087-16.509-.025-24.763.011-1.4-.762-2.988.618-4.214,3.133.787,3.936,3.584,5.195,5.992-.228,8.566-.249,17.135-.129,25.707.036,2.526.425,5.154-1.268,7.4" transform="translate(-42.667 -35.262)" fill="#eef8f9"/>
          <path id="Path_739" data-name="Path 739" d="M206.282,202.174c-1.342.817-2.614.887-3.765-.35-1.2-7.249-.5-14.556-.545-21.833-.021-3.19-.8-6.478.566-9.607,3.243,1.15,4.132,4.009,5.018,6.874.1,6.777-.067,13.555,0,20.334.015,1.61.283,3.371-1.273,4.581" transform="translate(-44.142 -37.282)" fill="#edf6f9"/>
          <path id="Path_740" data-name="Path 740" d="M213.1,204.484a3.468,3.468,0,0,1-3.592.291c-2.117-4.854-.582-9.934-.775-14.895-.109-2.815-1.18-5.926.843-8.609,3.009.63,3.725,3.161,4.625,5.546.263,4.483-.047,8.975.113,13.465a5.535,5.535,0,0,1-1.215,4.2" transform="translate(-45.59 -39.664)" fill="#ecf5f7"/>
          <path id="Path_741" data-name="Path 741" d="M195.819,160.9q-.153,19.225-.305,38.452l-1.534.41c.065-11.751.115-23.5.209-35.251.016-1.95.227-3.9.349-5.846,2.238-.291,1.435,1.159,1.281,2.236" transform="translate(-42.445 -34.708)" fill="#52918d"/>
          <path id="Path_742" data-name="Path 742" d="M219.865,206.748c-1.383,1-2.684,1.045-3.863-.33-.656-4.814-1.644-9.642.619-14.332,3.011.654,3.818,3.116,4.609,5.6-1.208,2.905.236,6.216-1.366,9.066" transform="translate(-47.091 -42.031)" fill="#ebf1f4"/>
          <path id="Path_743" data-name="Path 743" d="M202.186,170.826q.075,15.367.152,30.733l-1.424.45q.03-13.775.071-27.55c.008-1.786-.319-3.631.7-5.289,1.269.219,1.32.806.5,1.657" transform="translate(-43.962 -37.016)" fill="#53918f"/>
          <path id="Path_744" data-name="Path 744" d="M209.489,181.1c-.584,7.745-.315,15.495-.156,23.244a1.617,1.617,0,0,1-1.778-.219l.434-24.8c1.3-.082,1.97.367,1.5,1.777" transform="translate(-45.415 -39.237)" fill="#568f8e"/>
          <path id="Path_745" data-name="Path 745" d="M216.27,191.6l-.441,14.129-1.4.433.279-17.208c2.058-.023,1.923,1.246,1.563,2.647" transform="translate(-46.919 -41.346)" fill="#568f8c"/>
          <path id="Path_746" data-name="Path 746" d="M221.162,208.393c.34-2.922-.622-5.95.719-8.791,1.262,0,1.316.709.969,1.652q-.168,3.372-.334,6.745l-1.354.394" transform="translate(-48.388 -43.675)" fill="#559090"/>
          <path id="Path_747" data-name="Path 747" d="M215.427,189.046l-.968-1.651c-1.319-1.934-2.112-4.252-4.142-5.668-.576-.851-.294-2.205-1.562-2.647a20.8,20.8,0,0,0-3.715-5.745,2.011,2.011,0,0,0-1.5-1.777,12.605,12.605,0,0,0-4.35-6.281c.092-.63.241-1.278-.5-1.656l-4.347-5.964q-.64-1.119-1.281-2.237l-5.838-9.163c.218-2.339,2.2-2.216,3.646-2.26,9.059-.273,18.123-.177,27.185-.142,2.181.009,3.908,1.1,4.023,3.471.181,3.733.975,7.52-.5,11.187-1.173,2.814-.892,5.652-.135,8.5-.026.937.906,1.57.812,2.53-.024.891-.253,1.762-.24,2.657.027.715.055,1.428.037,2.143a22.5,22.5,0,0,0,.016,3.254,3.292,3.292,0,0,1-.49,2.137,2.667,2.667,0,0,0-.066,3.16q-.026.922-.052,1.843a2.661,2.661,0,0,0,.059,3.4,3.245,3.245,0,0,0-.185,2.822q-.45,2.389-.9,4.782l-5-6.686" transform="translate(-40.966 -31.467)" fill="#255b28"/>
          <path id="Path_748" data-name="Path 748" d="M230.035,144.679v38.179h72.021l-.241-102.276Z" transform="translate(-50.334 -17.632)" fill="#36ac60"/>
          <rect id="Rectangle_995" data-name="Rectangle 995" width="71.613" height="1.813" transform="translate(180.109 135.47)" fill="#fff"/>
          <rect id="Rectangle_996" data-name="Rectangle 996" width="71.613" height="1.813" transform="translate(180.109 141.815)" fill="#fff"/>
          <rect id="Rectangle_997" data-name="Rectangle 997" width="71.613" height="1.813" transform="translate(180.109 147.255)" fill="#fff"/>
          <rect id="Rectangle_998" data-name="Rectangle 998" width="71.613" height="1.813" transform="translate(180.109 152.693)" fill="#fff"/>
          <path id="Path_750" data-name="Path 750" d="M170.35,108.047c-.109-8.4-.27-16.81-.27-25.215,0-.452.1-1.358.1-2.265,7.438.01,15.989-.067,23.427-.057a1.263,1.263,0,0,1,.848.888c.074,7.884.9,15.779-.277,23.654a3.485,3.485,0,0,1-3.123,1.415c-6.275.007-12.518.237-18.6,2.04a2.347,2.347,0,0,1-2.112-.459" transform="translate(-37.216 -17.616)" fill="#255b28"/>
          <rect id="Rectangle_999" data-name="Rectangle 999" width="71.613" height="1.813" transform="translate(180.109 158.132)" fill="#fff"/>
          <path id="Path_751" data-name="Path 751" d="M166.469,107.654c7.542-3.1,15.553-2.362,23.414-2.861,4.87-2.069,9.95-.651,14.924-.812,3.678-.119,7.167-.134,9.242-3.856,3.947-1.322,8.285-.574,12.135-2.815,6.657-3.873,9.753-9.784,10.9-17.057,5.477-1.837,10.959-2.249,16.443-.021-1.216,3.884-1.18,8.045-2.876,11.851-6.117,13.731-17.731,20.889-32.829,20.075-.6-.052.092-.616-.1-.043-.025.073.107.12.4.137,17.756,1.073,32.036-10.588,34.618-28.293a8.466,8.466,0,0,1,.951-3.466c5.178-2.24,10.439-2.133,15.754-.566.719,23.119-19.826,48.625-51.745,45.61,30.557,2.959,51.688-20.456,51.935-45.073,4.789-2.808,9.989-.868,14.986-1.294.446,4.63-.923,9.221-1.2,13.843-2.977,10.276-7.588,19.564-15.013,27.525-14.057,15.071-31.533,22.2-51.783,23.393-.894.053-1.78.224-2.669.338-.163-3.44-.4-6.877-.46-10.317-.032-1.947-.573-3.29-2.738-3.281q-14.406.06-28.811.2a2.742,2.742,0,0,0-2.344,1.144l-1.016-.266c-8.613.476-17.232.334-25.851.234a.472.472,0,0,1-.378-.527c1.374-3.617,1.234-7.587,2.986-11.183,2.579-5.294,6.557-9.179,11.14-12.616" transform="translate(-33.334 -17.223)" fill="#a7d099"/>
          <path id="Path_753" data-name="Path 753" d="M152.827,146.483c1.755-1.627,19.3-2.205,25.853-.237q-.036,12.42-.071,24.834c-15.192-1.492-23.457-9.377-25.782-24.6" transform="translate(-33.44 -31.727)" fill="#a7d099"/>
          <path id="Path_754" data-name="Path 754" d="M224.358,100.369c-.131,3.677-2.4,4.586-5.621,4.489-6.132-.186-12.267-.267-18.4-.39-.309-8.172-.317-16.842.185-25.018,8.031,0,13.182-3.042,20.906-1.992,1.763.826,3.488,5.269,3.535,6.727.158,4.792.07,9.586.118,14.381a3.08,3.08,0,0,1-.724,1.8" transform="translate(-43.789 -16.9)" fill="#36ac60"/>
          <path id="Path_755" data-name="Path 755" d="M230.735,99.568q-.332-9.318-.664-18.637c.245-.385,2.164-.361,2.409-.744,5.88,1.534,10.2-.073,16.132.348,1.475.1,2.947.237,4.422.357,1.9.492.894,1.9.766,2.847-1.4,10.48-12.605,18.43-23.065,15.829" transform="translate(-50.342 -17.546)" fill="#a7d099"/>
          <path id="Path_756" data-name="Path 756" d="M286.224,80.489a.984.984,0,0,1,.771.248,42.221,42.221,0,0,1-11.461,30.522c-12.049,13.244-27.425,16.985-45.6,14.979,3.092-1.811,5.721-1.236,8.017-1.1a44.967,44.967,0,0,0,47.759-42.94,7.153,7.153,0,0,1,.518-1.705" transform="translate(-50.311 -17.611)" fill="#ebdded"/>
          <path id="Path_757" data-name="Path 757" d="M270.411,80.629a2.4,2.4,0,0,1,.807.316c-1.08,8.742-3.8,16.778-10.258,23.115-8.331,8.179-18.418,10.588-30.664,9.045a10.251,10.251,0,0,1,5.948-1.176c17.381.109,30.072-10.559,32.716-27.563a7.272,7.272,0,0,1,1.451-3.736" transform="translate(-50.391 -17.643)" fill="#e9dbec"/>
          <path id="Path_758" data-name="Path 758" d="M230.921,99.694c7.131-.338,13.954-1.183,18.719-7.62,2.5-3.382,3.951-6.862,3.579-11.055l1.389-.257c2.058,7.55-7.328,19.363-17.2,20.161-2.1.169-4.205.148-6.309.217q-.088-.722-.177-1.445" transform="translate(-50.528 -17.671)" fill="#e9dbe9"/>
        </g>
      </g>
      <text id="_" data-name="?" transform="translate(60.933 108.192)" fill="#fff" font-size="68" font-family="Helvetica"><tspan x="0" y="0">?</tspan></text>
      <g id="Group_739" data-name="Group 739">
        <g id="Group_738" data-name="Group 738" clip-path="url(#clip-path-2)">
          <path id="Path_780" data-name="Path 780" d="M16.747,160.739v21.523H113.16V160.406H16.747Z" transform="translate(32.093 -14.658)" fill="#255b28"/>
          <path id="Path_759" data-name="Path 759" d="M53.427,127.115H16.747V58.626S17.606,1.169,89.358,1.169V34.248a41.145,41.145,0,0,0-9.776.445,29.4,29.4,0,0,0-24.55,28.387Z" transform="translate(-3.664 -0.256)" fill="#a7d099"/>
          <path id="Path_760" data-name="Path 760" d="M16.747,161.051V202.7H53.505v-42.3H16.747Z" transform="translate(-3.664 -35.099)" fill="#a7d099"/>
          <path id="Path_762" data-name="Path 762" d="M170.18,62.952h46.759V.008H170.053Z" transform="translate(-37.21 -0.002)" fill="#2a8e53"/>
          <path id="Path_763" data-name="Path 763" d="M223.581,63.363c.857,1.838.466,3.705.126,5.57-6.642-.014-13.283-.005-19.924-.055-1.74-.013-3.534.37-3.522-2.641.012-2.908,1.578-2.609,3.42-2.625,6.634-.055,13.268-.162,19.9-.248" transform="translate(-44.384 -13.865)" fill="#f0f8f9"/>
          <path id="Path_764" data-name="Path 764" d="M223.578,53.252c.879,1.718.5,3.466.126,5.214-6.792-.032-13.585-.121-20.376-.059-1.975.018-3.023-.267-3.057-2.637-.034-2.351.887-2.715,2.942-2.669,6.786.148,13.576.115,20.365.152" transform="translate(-44.387 -11.618)" fill="#f1f8f9"/>
          <path id="Path_765" data-name="Path 765" d="M223.753,42.626c.212,1.741.6,3.492-.252,5.182-6.478.013-12.955.045-19.434.029-1.833,0-3.964.669-3.854-2.658s2.327-2.547,4.113-2.561c6.475-.052,12.952,0,19.427.009" transform="translate(-44.373 -9.31)" fill="#f1f9fa"/>
          <path id="Path_767" data-name="Path 767" d="M230.071,68.3H301.72s-6.908-35.788-20.9-45.824Z" transform="translate(-50.342 -4.919)" fill="#a7d099"/>
          <path id="Path_768" data-name="Path 768" d="M230.837,161.64v38.954h-.869l-.235-.961V161.64Z" transform="translate(-50.268 -35.369)" fill="#255b28"/>
          <path id="Path_771" data-name="Path 771" d="M187.219,146.939l32.152,49.477,1.3.961.275-1.814-9.47-20.69-16.115-21.583Z" transform="translate(-40.966 -32.152)" fill="#255b28"/>
          <path id="Path_775" data-name="Path 775" d="M109.683,43.228a14.636,14.636,0,0,0,4.109,1.374c2.874.623,0-2.258,0-2.258l-4.157-.139Z" transform="translate(-23.989 -9.235)" fill="#36ac60"/>
        </g>
      </g>
    </g>
    <path id="Path_777" data-name="Path 777" d="M286.224,80.489a.984.984,0,0,1,.771.248,42.221,42.221,0,0,1-11.461,30.522c-12.049,13.244-27.425,16.985-45.6,14.979,3.092-1.811,5.721-1.236,8.017-1.1a44.967,44.967,0,0,0,47.759-42.94,7.153,7.153,0,0,1,.518-1.705" transform="matrix(-0.966, 0.259, -0.259, -0.966, 386.783, 297.463)" fill="#ebdded"/>
    <path id="Path_778" data-name="Path 778" d="M270.411,80.629a2.4,2.4,0,0,1,.807.316c-1.08,8.742-3.8,16.778-10.258,23.115-8.331,8.179-18.418,10.588-30.664,9.045a10.251,10.251,0,0,1,5.948-1.176c17.381.109,30.072-10.559,32.716-27.563a7.272,7.272,0,0,1,1.451-3.736" transform="matrix(-0.966, 0.259, -0.259, -0.966, 386.869, 297.473)" fill="#e9dbec"/>
  </g>
</svg>
